<svg id="Capa_1" enable-background="new 0 0 512 512" height="512" viewBox="0 0 512 512" width="512" xmlns="http://www.w3.org/2000/svg"><g><path d="m512 0h-272.714l-68.787 68.787v2.009h-101.712l-68.787 68.786v372.418h341.501v-70.795h170.499zm-262.767 32.479v46.256h-46.255zm-170.499 70.795v46.256h-46.255zm232.767 378.726h-281.501v-302.47h78.734v-78.734h61.765v108.734h-97.332v30h97.332v30h-97.332v30h97.332v30h-97.332v30h97.332v81.674h141.002zm170.499-70.795h-281.501v-302.47h78.734v-78.735h202.767z"/><path d="m243.667 138.734h195.166v30h-195.166z"/><path d="m243.667 198.734h195.166v30h-195.166z"/><path d="m243.667 258.734h195.166v30h-195.166z"/></g></svg>