<svg height="486pt" viewBox="0 -3 486.21124 486" width="486pt" xmlns="http://www.w3.org/2000/svg"><path d="m224 159.636719v41.597656c-14.398438 4-24 16-24 31.203125v12.796875l-32.800781 32.800781c-4.800781 4.800782-7.199219 10.402344-7.199219 16.800782v52.800781c0 4.800781 1.601562 9.597656 4 13.597656l28 41.601563v13.601562h-16v64h16v-16h56v-16h-56v-16h104v48h16v-64h-16v-12.800781l8.800781-8.800781c4.800781-4.800782 7.199219-10.398438 7.199219-16.800782v-22.398437l11.199219-11.199219c8.800781-8.800781 9.601562-22.402344 1.601562-32l-60.800781-75.203125v-4.796875c0-14.402344-9.601562-27.203125-24-31.203125v-41.597656c44-4.800781 76-44 71.199219-87.199219-4.800781-43.203125-43.199219-76-87.199219-72s-76 44-71.199219 88c3.199219 37.597656 33.597657 68 71.199219 71.199219zm88 173.597656-8 8-12-12 16-12 4 4.800781c3.199219 3.199219 3.199219 8 0 11.199219zm-44-28 19.199219-14.398437 11.199219 13.601562-17.597657 12.796875zm8.800781-26.398437-12.800781 9.601562v-25.601562zm-28.800781-46.398438v75.199219l48 48v22.398437c0 2.402344-.800781 4-2.398438 5.601563l-13.601562 13.597656v19.203125h-72v-18.402344l-30.398438-45.597656c-.800781-1.601562-1.601562-3.203125-1.601562-4.800781v-52.800781c0-2.398438.800781-4 2.398438-5.601563l21.601562-21.597656v30.398437c0 2.402344-.800781 4-2.398438 5.601563l-11.203124 11.199219 11.203124 11.199218 11.199219-11.199218c4.800781-4.800782 7.199219-10.398438 7.199219-16.800782v-65.597656c0-8.800781 7.199219-16 16-16s16 7.199219 16 16zm-16-216c35.199219 0 64 28.796875 64 64 0 35.199219-28.800781 64-64 64s-64-28.800781-64-64c0-35.203125 28.800781-64 64-64zm0 0"/><path d="m426.398438 150.035156 11.203124-11.199218-18.402343-18.398438 18.402343-18.402344-11.203124-11.199218-18.398438 18.398437-18.398438-18.398437-11.203124 11.199218 18.402343 18.402344-18.402343 18.398438 11.203124 11.199218 18.398438-18.398437zm0 0"/><path d="m264 448.4375h16v16h-16zm0 0"/><path d="m432 261.234375v-12.796875c0-10.402344-6.398438-19.203125-16-22.402344v-42.398437c35.199219-4.800781 60-36.800781 55.199219-71.199219-4.800781-35.203125-36.800781-60-71.199219-55.203125-35.199219 4.800781-60 36.800781-55.199219 71.203125 4 28.796875 26.398438 52 55.199219 55.199219v42.398437c-9.601562 3.199219-16 12-16 22.402344v12l-31.199219 26.398438c-5.601562 4-8.800781 10.398437-8.800781 17.601562v36.796875c0 5.601563 2.398438 11.203125 5.601562 16l26.398438 30.402344v12.800781h-16v80h16v-32h64v-16h-64v-16h80v64h16v-80h-16v-12l13.601562-8.800781c6.398438-4.800781 10.398438-12 10.398438-20v-14.402344l4.800781-13.597656c3.199219-8.800781.800781-18.402344-5.601562-24.800781zm37.601562 66.402344-1.601562 4.800781-15.199219-10.402344 5.597657-12 8.800781 8.800782c2.402343 2.398437 3.199219 5.601562 2.402343 8.800781zm-23.203124-29.601563-7.199219 14.402344-7.199219-4v-24.800781zm-86.398438-177.597656c0-26.402344 21.601562-48 48-48s48 21.597656 48 48c0 26.398438-21.601562 48-48 48s-48-21.601562-48-48zm104 239.199219c0 2.398437-1.601562 4.800781-3.199219 6.398437l-20.800781 14.402344v20h-48v-19.203125l-30.398438-34.398437c-1.601562-1.601563-1.601562-3.199219-1.601562-5.601563v-36.796875c0-2.402344.800781-4.800781 3.199219-6.402344l20.800781-17.597656v24.796875c0 2.402344-.800781 4-2.398438 5.601563l-11.203124 11.199218 11.203124 11.199219 11.199219-11.199219c4.800781-4.800781 7.199219-10.398437 7.199219-16.800781v-56.796875c0-4.800781 3.199219-8 8-8s8 3.199219 8 8v68l48 32zm0 0"/><path d="m269.601562 54.035156-11.203124-11.199218-50.398438 50.398437-10.398438-10.398437-11.203124 11.199218 21.601562 21.601563zm0 0"/><path d="m82.398438 150.035156 11.203124-11.199218-18.402343-18.398438 18.402343-18.402344-11.203124-11.199218-18.398438 18.398437-18.398438-18.398437-11.203124 11.199218 18.402343 18.402344-18.402343 18.398438 11.203124 11.199218 18.398438-18.398437zm0 0"/><path d="m32 387.636719v12.800781h-16v80h16v-32h64v-16h-64v-16h80v64h16v-80h-16v-12l13.601562-8.800781c6.398438-4.800781 10.398438-12 10.398438-20v-14.402344l4.800781-13.597656c3.199219-8.800781.800781-18.402344-5.601562-24.800781l-47.199219-45.601563v-12.796875c0-10.402344-6.398438-19.203125-16-22.402344v-42.398437c35.199219-4.800781 60-36.800781 55.199219-71.199219-4.800781-34.402344-36-60-71.199219-55.203125-35.199219 4-60 36-55.199219 71.203125 4 28.796875 26.398438 52 55.199219 55.199219v42.398437c-9.601562 3.199219-16 12-16 22.402344v12l-31.199219 26.398438c-5.601562 4-8.800781 10.398437-8.800781 17.601562v36.796875c0 5.601563 2.398438 11.203125 5.601562 16zm93.601562-60-1.601562 4.800781-15.199219-10.402344 5.597657-12 8.800781 8.800782c2.402343 2.398437 3.199219 5.601562 2.402343 8.800781zm-23.203124-29.601563-7.199219 14.402344-7.199219-4v-24.800781zm-86.398438-177.597656c0-26.402344 21.601562-48 48-48s48 21.597656 48 48c0 26.398438-21.601562 48-48 48s-48-21.601562-48-48zm0 184c0-2.402344.800781-4.800781 3.199219-6.402344l20.800781-16.800781v24.800781c0 2.402344-.800781 4-2.398438 5.601563l-11.203124 11.199219 11.203124 11.199218 11.199219-11.199218c4.800781-4.800782 7.199219-10.398438 7.199219-16.800782v-57.597656c0-4.800781 3.199219-8 8-8s8 3.199219 8 8v68l48 32v11.199219c0 2.398437-1.601562 4.800781-3.199219 6.398437l-20.800781 14.402344v20h-48v-19.203125l-30.398438-34.398437c-.800781-1.601563-1.601562-3.199219-1.601562-5.601563zm0 0"/></svg>