<?xml version="1.0" standalone="no"?>
<!DOCTYPE svg PUBLIC "-//W3C//DTD SVG 20010904//EN"
 "http://www.w3.org/TR/2001/REC-SVG-20010904/DTD/svg10.dtd">
<svg version="1.0" xmlns="http://www.w3.org/2000/svg"
 width="96.000000pt" height="96.000000pt" viewBox="0 0 96.000000 96.000000"
 preserveAspectRatio="xMidYMid meet">

<g transform="translate(0.000000,96.000000) scale(0.100000,-0.100000)"
fill="#000000" stroke="none">
<path d="M182 877 c-19 -20 -22 -35 -22 -108 0 -76 2 -88 23 -107 15 -14 36
-22 60 -22 l37 0 0 -219 0 -220 26 -20 c22 -17 41 -21 110 -21 l84 0 0 -28 c0
-17 10 -37 23 -50 21 -20 34 -22 128 -22 97 0 107 2 127 23 19 20 22 35 22
108 0 76 -2 88 -23 107 -21 20 -34 22 -128 22 -97 0 -107 -2 -127 -23 -12 -13
-22 -35 -22 -50 l0 -27 -80 0 -80 0 0 130 0 130 80 0 80 0 0 -28 c0 -17 10
-37 23 -50 21 -20 34 -22 128 -22 97 0 107 2 127 23 19 20 22 35 22 108 0 76
-2 88 -23 107 -21 20 -34 22 -128 22 -97 0 -107 -2 -127 -23 -12 -13 -22 -35
-22 -50 l0 -27 -80 0 -80 0 0 50 0 50 38 0 c64 0 82 29 82 131 0 76 -2 88 -23
107 -21 20 -34 22 -128 22 -97 0 -107 -2 -127 -23z"/>
</g>
</svg>
