<?xml version="1.0" encoding="iso-8859-1"?>
<!-- Generator: Adobe Illustrator 19.0.0, SVG Export Plug-In . SVG Version: 6.00 Build 0)  -->
<svg version="1.1" id="Capa_1" xmlns="http://www.w3.org/2000/svg" xmlns:xlink="http://www.w3.org/1999/xlink" x="0px" y="0px"
	 viewBox="0 0 512 512" style="enable-background:new 0 0 512 512;" xml:space="preserve">
<g>
	<g>
		<path d="M132.821,289.682c-1.86-1.861-4.44-2.93-7.07-2.93c-2.63,0-5.21,1.07-7.07,2.93s-2.93,4.44-2.93,7.07
			c0,2.63,1.07,5.21,2.93,7.069c1.86,1.861,4.44,2.931,7.07,2.931c2.63,0,5.21-1.07,7.07-2.931c1.86-1.859,2.93-4.429,2.93-7.069
			C135.751,294.122,134.681,291.543,132.821,289.682z"/>
	</g>
</g>
<g>
	<g>
		<path d="M136.025,0c-13.355,0-25.911,5.201-35.355,14.645c-9.443,9.444-14.644,22-14.644,35.355
			c-0.001,27.568,22.429,49.998,50,49.999c27.571-0.001,50-22.431,49.999-49.999C186.025,22.43,163.595,0,136.025,0z
			 M136.025,79.998c-16.542-0.001-30-13.458-30-29.999c0-8.014,3.12-15.547,8.787-21.213c5.666-5.666,13.2-8.787,21.213-8.787
			c16.543,0,30.001,13.458,30,30C166.025,66.54,152.567,79.997,136.025,79.998z"/>
	</g>
</g>
<g>
	<g>
		<path d="M490.999,128.003h-72.173c8.198-9.742,13.15-22.301,13.15-36c0-30.879-25.122-56-56.001-56
			c-14.958,0-29.021,5.825-39.599,16.402c-10.578,10.577-16.402,24.64-16.402,39.598c0,13.322,4.631,25.928,13.115,36h-17.474
			c-4.731-26.122-27.625-46-55.089-46c-14.958,0-29.021,5.825-39.599,16.402c-8.179,8.179-13.502,18.447-15.501,29.598H21.002
			c-5.523,0-10,4.478-10,10v54c0,2.652,1.054,5.195,2.929,7.071l78.749,78.749c3.905,3.904,10.237,3.904,14.143,0
			c3.905-3.905,3.905-10.237,0-14.143l-61.679-61.679h344.854c5.523,0,10-4.478,10-10c0-5.522-4.477-10-10-10H31.002v-34h449.996
			v39.857L296.929,371.93c-1.875,1.876-2.929,4.419-2.929,7.071v81.932l-75.999,26.917V379.001c0-2.652-1.054-5.195-2.929-7.071
			l-57-57c-3.905-3.904-10.237-3.904-14.143,0c-3.905,3.905-3.905,10.237,0,14.143L198,383.144V502c0,3.247,1.577,6.292,4.229,8.166
			c1.711,1.21,3.731,1.834,5.772,1.834c1.122,0,2.251-0.189,3.337-0.574l95.999-34c3.993-1.414,6.662-5.19,6.662-9.426v-84.856
			l184.07-184.07c1.875-1.876,2.929-4.419,2.929-7.071v-54C500.999,132.48,496.522,128.003,490.999,128.003z M225.937,128.003
			c1.661-5.782,4.762-11.084,9.134-15.455c6.8-6.8,15.84-10.545,25.457-10.545c16.381,0,30.232,11.001,34.578,26H225.937z
			 M375.975,128.003c-9.617,0-18.658-3.745-25.458-10.545c-6.8-6.8-10.544-15.84-10.544-25.455c0-9.616,3.744-18.656,10.544-25.455
			c6.8-6.8,15.84-10.545,25.457-10.545c19.851,0,36.001,16.149,36.001,36C411.975,111.853,395.825,128.002,375.975,128.003z"/>
	</g>
</g>
<g>
	<g>
		<path d="M434.069,184.933c-1.86-1.861-4.44-2.93-7.07-2.93s-5.21,1.07-7.07,2.93s-2.93,4.44-2.93,7.07
			c0,2.63,1.07,5.21,2.93,7.069c1.86,1.861,4.44,2.931,7.07,2.931c2.63,0,5.21-1.07,7.07-2.931c1.86-1.859,2.93-4.439,2.93-7.069
			C436.999,189.372,435.929,186.794,434.069,184.933z"/>
	</g>
</g>
<g>
</g>
<g>
</g>
<g>
</g>
<g>
</g>
<g>
</g>
<g>
</g>
<g>
</g>
<g>
</g>
<g>
</g>
<g>
</g>
<g>
</g>
<g>
</g>
<g>
</g>
<g>
</g>
<g>
</g>
</svg>
