<?xml version="1.0"?>
<svg xmlns="http://www.w3.org/2000/svg" width="512" height="512" viewBox="0 0 128 128"><path d="M123.385,110.7l-3.95-14.849a1.751,1.751,0,0,0-3.206-.428l-4.574,7.891-11.434-6.7V57.723a1.832,1.832,0,0,0-.028-.28,1.927,1.927,0,0,0,.028-.214,1.746,1.746,0,0,0-.866-1.51L65.75,36.032V22.807h9.115A1.75,1.75,0,0,0,76.1,19.819L65.237,8.954a1.75,1.75,0,0,0-2.474,0L51.9,19.819a1.75,1.75,0,0,0,1.237,2.988H62.25V36.032L28.645,55.719a1.749,1.749,0,0,0-.866,1.51,1.719,1.719,0,0,0,.029.214,1.714,1.714,0,0,0-.029.28V96.612l-11.433,6.7L11.771,95.42a1.751,1.751,0,0,0-3.206.428L4.615,110.7a1.752,1.752,0,0,0,1.242,2.142l14.85,3.95a1.75,1.75,0,0,0,1.963-2.569L18.1,106.338l11.428-6.695,33.586,19.675c.02.012.043.016.063.027a1.782,1.782,0,0,0,.3.126c.035.011.069.024.105.033a1.593,1.593,0,0,0,.83,0c.036-.009.07-.022.1-.033a1.782,1.782,0,0,0,.3-.126c.02-.011.043-.015.063-.027L98.471,99.643l11.428,6.7-4.569,7.881a1.75,1.75,0,0,0,1.514,2.628,1.783,1.783,0,0,0,.45-.059l14.85-3.95A1.752,1.752,0,0,0,123.385,110.7ZM64,12.666l6.641,6.641H57.359ZM8.448,109.906l2.414-9.075,6.661,11.489ZM64,39.063,95.009,57.229,64,75.394,32.992,57.229ZM31.279,60.282,62.25,78.425v36.33L31.279,96.612ZM65.75,114.755V78.425L96.721,60.282v36.33Zm44.727-2.435,6.661-11.489,2.415,9.075Z"/></svg>
