<svg id="Layer_1" enable-background="new 0 0 511.974 511.974" height="512" viewBox="0 0 511.974 511.974" width="512" xmlns="http://www.w3.org/2000/svg"><path d="m466.383 264.307 43.58-75.482c4.142-7.174 1.684-16.348-5.49-20.49-7.175-4.144-16.349-1.685-20.49 5.49l-43.579 75.48-40.15-.002c-6.364-19.897-25.027-34.346-47.008-34.346-3.616 0-7.139.402-10.536 1.144l-20.05-34.772 20.074-34.776c3.39.739 6.904 1.138 10.512 1.138 27.209 0 49.346-22.136 49.346-49.346s-22.137-49.346-49.346-49.346c-3.591 0-7.09.396-10.464 1.127l-24.461-42.271c-2.682-4.634-7.629-7.488-12.983-7.488h-95.815c-5.359 0-10.311 2.859-12.99 7.5l-43.578 75.479h-78.907l-46.335-73.953c-4.398-7.02-13.654-9.146-20.675-4.747-7.02 4.398-9.145 13.655-4.747 20.675l45.98 73.385-43.37 75.118c-2.68 4.641-2.68 10.359 0 15l43.578 75.478-43.578 75.478c-4.142 7.174-1.684 16.348 5.49 20.49 2.362 1.364 4.941 2.012 7.486 2.012 5.184 0 10.227-2.69 13.004-7.502l43.578-75.479 40.196-.001c6.364 19.897 25.027 34.346 47.007 34.346 3.595 0 7.098-.397 10.477-1.13l20.062 34.763-43.578 75.48c-1.148 1.988-1.772 4.131-1.946 6.276-.011.129-.021.257-.029.385-.011.207-.026.414-.028.621-.056 2.558.539 5.13 1.794 7.455l35.766 66.235c2.713 5.023 7.877 7.876 13.212 7.876 2.406 0 4.848-.581 7.114-1.804 7.29-3.937 10.008-13.037 6.072-20.326l-31.786-58.863 39.389-68.223h78.495l43.578 75.479c3.096 5.364 9.006 8.089 14.79 7.393h47.033c6.359 19.906 25.026 34.363 47.013 34.363 27.209 0 49.346-22.136 49.346-49.346 0-12.787-4.89-24.452-12.896-33.227l24.417-42.265c2.682-4.642 2.682-10.361.002-15.003zm-6.828 117.755c-3.375-.732-6.873-1.127-10.464-1.127-21.974 0-40.633 14.441-47.002 34.329h-40.183l-39.247-67.978 20.081-34.773c3.387.737 6.899 1.136 10.503 1.136 21.98 0 40.643-14.449 47.007-34.345l40.149.002 39.247 67.977zm-261.444-150.991 20.07-34.747h78.495l20.069 34.805c-7.977 8.769-12.845 20.413-12.845 33.173 0 12.772 4.878 24.426 12.868 33.198l-20.086 34.781h-78.497l-20.063-34.764c8.001-8.774 12.887-20.435 12.887-33.217 0-12.788-4.891-24.453-12.898-33.229zm174.48 33.231c0 10.667-8.678 19.346-19.346 19.346s-19.346-8.679-19.346-19.346c0-7.018 3.769-13.157 9.377-16.548.094-.052.189-.097.283-.151.172-.099.327-.214.493-.319 2.736-1.484 5.868-2.328 9.193-2.328 10.668.001 19.346 8.679 19.346 19.346zm0-165.957c0 10.667-8.679 19.346-19.346 19.346s-19.346-8.678-19.346-19.346c0-7.094 3.849-13.292 9.558-16.659.065-.036.131-.063.196-.1.139-.08.264-.175.399-.259 2.736-1.484 5.867-2.328 9.192-2.328 10.669 0 19.347 8.679 19.347 19.346zm-154.408-67.978h78.504l20.108 34.752c-8.006 8.775-12.896 20.44-12.896 33.226 0 12.769 4.876 24.42 12.862 33.191l-20.08 34.787h-78.499l-38.801-67.205-.446-.773zm-143.724 82.978h78.495l39.247 67.978-20.076 34.758c-3.374-.731-6.872-1.127-10.462-1.127-21.981 0-40.644 14.449-47.008 34.346l-40.196.001-39.247-67.978zm67.858 150.955c0-10.667 8.678-19.346 19.346-19.346s19.346 8.678 19.346 19.346c0 10.667-8.678 19.346-19.346 19.346s-19.346-8.679-19.346-19.346zm306.774 185.326c-10.667 0-19.346-8.678-19.346-19.346s8.678-19.346 19.346-19.346 19.346 8.678 19.346 19.346-8.678 19.346-19.346 19.346z"/></svg>