<?xml version="1.0" encoding="iso-8859-1"?>
<!-- Generator: Adobe Illustrator 19.0.0, SVG Export Plug-In . SVG Version: 6.00 Build 0)  -->
<svg version="1.1" id="Capa_1" xmlns="http://www.w3.org/2000/svg" xmlns:xlink="http://www.w3.org/1999/xlink" x="0px" y="0px"
	 viewBox="0 0 384 384" style="enable-background:new 0 0 384 384;" xml:space="preserve">
<g>
	<g>
		<path d="M64,0v80H0v144h64v160h224l96-96V0H64z M16,208V96h240v112H16z M288,361.376V288h73.376L288,361.376z M368,272h-96v96H80
			V224h192V80H80V16h288V272z"/>
	</g>
</g>
<g>
	<g>
		<path d="M78.672,160.224c0,3.712-0.224,6.704-0.672,8.976c-0.432,2.272-1.04,4.032-1.824,5.28c-0.768,1.248-1.68,2.08-2.736,2.496
			c-1.056,0.416-2.192,0.624-3.408,0.624c-1.472,0-2.768-0.32-3.888-0.928c-1.12-0.592-2.048-1.776-2.784-3.552
			c-0.736-1.776-1.296-4.24-1.632-7.44c-0.352-3.2-0.528-7.392-0.528-12.576c0-4.864,0.112-8.976,0.384-12.336
			c0.256-3.376,0.704-6.096,1.344-8.176c0.64-2.08,1.52-3.568,2.64-4.496c1.12-0.944,2.544-1.408,4.272-1.408
			c3.136,0,5.296,1.136,6.48,3.424c1.168,2.256,1.76,5.888,1.76,10.928h13.808c0-2.496-0.176-5.168-0.528-8.016
			c-0.336-2.848-1.248-5.504-2.64-7.968c-1.392-2.464-3.52-4.496-6.368-6.096c-2.848-1.6-6.72-2.4-11.664-2.4
			c-5.168,0-9.312,0.896-12.368,2.64c-3.072,1.76-5.408,4.224-7.056,7.344c-1.616,3.136-2.688,6.912-3.168,11.28
			c-0.464,4.384-0.72,9.168-0.72,14.352c0,5.232,0.256,10.048,0.72,14.384c0.48,4.352,1.536,8.096,3.168,11.232
			c1.632,3.136,3.984,5.536,7.056,7.2c3.056,1.648,7.2,2.496,12.368,2.496c4.544,0,8.24-0.72,11.088-2.128
			c2.848-1.408,5.04-3.36,6.624-5.84c1.552-2.496,2.64-5.408,3.216-8.736c0.576-3.328,0.864-6.864,0.864-10.56H78.672z"/>
	</g>
</g>
<g>
	<g>
		<path d="M152.272,160.976c-0.384-1.744-1.072-3.312-2.064-4.752c-0.976-1.44-2.32-2.784-3.984-4.032
			c-1.648-1.264-3.792-2.464-6.416-3.616l-10.656-4.608c-2.944-1.2-4.864-2.528-5.76-3.984c-0.896-1.44-1.344-3.2-1.344-5.328
			c0-1.024,0.096-2.016,0.336-2.976c0.224-0.96,0.64-1.84,1.248-2.576c0.608-0.736,1.44-1.328,2.448-1.776
			c1.024-0.432,2.304-0.672,3.84-0.672c2.688,0,4.608,0.896,5.76,2.64c1.136,1.776,1.712,4.288,1.712,7.552h13.248v-1.92
			c0-3.264-0.544-6.064-1.584-8.4c-1.056-2.32-2.528-4.24-4.416-5.744c-1.888-1.52-4.128-2.592-6.72-3.264s-5.424-1.008-8.496-1.008
			c-6.592,0-11.792,1.664-15.552,4.992c-3.776,3.328-5.664,8.368-5.664,15.152c0,2.832,0.352,5.296,1.056,7.456
			c0.704,2.144,1.808,4.032,3.312,5.664c1.504,1.648,3.376,3.072,5.616,4.272c2.256,1.216,4.912,2.352,7.968,3.376
			c2.304,0.768,4.256,1.52,5.808,2.256c1.552,0.736,2.816,1.536,3.792,2.448c0.96,0.88,1.648,1.888,2.064,3.008
			c0.4,1.12,0.624,2.448,0.624,3.984c0,2.864-0.864,5.008-2.544,6.384c-1.696,1.376-3.584,2.064-5.712,2.064
			c-1.776,0-3.28-0.272-4.448-0.768c-1.184-0.512-2.144-1.216-2.848-2.128c-0.704-0.896-1.168-2-1.44-3.312
			c-0.24-1.296-0.384-2.752-0.384-4.352v-2h-13.824v2.784c0,6.336,1.664,11.2,5.024,14.592c3.376,3.392,8.96,5.088,16.768,5.088
			c7.488,0,13.328-1.664,17.52-4.96s6.288-8.56,6.288-15.792C152.848,164.624,152.656,162.688,152.272,160.976z"/>
	</g>
</g>
<g>
	<g>
		<polygon points="199.824,117.856 189.648,168.544 189.344,168.544 179.696,117.856 164.912,117.856 180.64,186.4 198.4,186.4 
			214.144,117.856 		"/>
	</g>
</g>
<g>
</g>
<g>
</g>
<g>
</g>
<g>
</g>
<g>
</g>
<g>
</g>
<g>
</g>
<g>
</g>
<g>
</g>
<g>
</g>
<g>
</g>
<g>
</g>
<g>
</g>
<g>
</g>
<g>
</g>
</svg>
